inDegrees=no
num_controls=7
num_derivatives=13
num_iterations=95
num_multipliers=7
num_parameters=0
num_slacks=7
num_states=26
objective=0.517012
objective_accelerations=0.039700
objective_balance=0.002176
objective_effort=0.044012
objective_height=0.419478
objective_ligament=0.011646
solver_duration=1269.709948
status=Solve_Succeeded
success=true
DataType=double
version=3
OpenSimVersion=4.5
endheader
time	/jointset/ground_pelvis/pelvis_tilt/value	/jointset/ground_pelvis/pelvis_tx/value	/jointset/ground_pelvis/pelvis_ty/value	/jointset/hip_l/hip_flexion_l/value	/jointset/hip_l/hip_adduction_l/value	/jointset/hip_l/hip_rotation_l/value	/jointset/back/lumbar_extension/value	/jointset/patellofemoral_l/patellar_flexion_l/value	/jointset/knee_l/knee_flexion_l/value	/jointset/knee_l/knee_adduction_l/value	/jointset/knee_l/knee_rotation_l/value	/jointset/ankle_l/ankle_angle_l/value	/jointset/subtalar_l/subtalar_angle_l/value	/jointset/ground_pelvis/pelvis_tilt/speed	/jointset/ground_pelvis/pelvis_tx/speed	/jointset/ground_pelvis/pelvis_ty/speed	/jointset/hip_l/hip_flexion_l/speed	/jointset/hip_l/hip_adduction_l/speed	/jointset/hip_l/hip_rotation_l/speed	/jointset/back/lumbar_extension/speed	/jointset/patellofemoral_l/patellar_flexion_l/speed	/jointset/knee_l/knee_flexion_l/speed	/jointset/knee_l/knee_adduction_l/speed	/jointset/knee_l/knee_rotation_l/speed	/jointset/ankle_l/ankle_angle_l/speed	/jointset/subtalar_l/subtalar_angle_l/speed	/forceset/tau_hip_flexion_l	/forceset/tau_hip_adduction_l	/forceset/tau_hip_rotation_l	/forceset/tau_knee_flexion_l	/forceset/tau_ankle_angle_l	/forceset/tau_subtalar_angle_l	/forceset/tau_lumbar_extension	lambda_cid13_p0	lambda_cid13_p1	lambda_cid13_p2	lambda_cid13_p3	lambda_cid13_p4	lambda_cid13_p5	lambda_cid14_p0	/jointset/ground_pelvis/pelvis_tilt/accel	/jointset/ground_pelvis/pelvis_tx/accel	/jointset/ground_pelvis/pelvis_ty/accel	/jointset/hip_l/hip_flexion_l/accel	/jointset/hip_l/hip_adduction_l/accel	/jointset/hip_l/hip_rotation_l/accel	/jointset/back/lumbar_extension/accel	/jointset/patellofemoral_l/patellar_flexion_l/accel	/jointset/knee_l/knee_flexion_l/accel	/jointset/knee_l/knee_adduction_l/accel	/jointset/knee_l/knee_rotation_l/accel	/jointset/ankle_l/ankle_angle_l/accel	/jointset/subtalar_l/subtalar_angle_l/accel	gamma_cid13_p0	gamma_cid13_p1	gamma_cid13_p2	gamma_cid13_p3	gamma_cid13_p4	gamma_cid13_p5	gamma_cid14_p0
0	-0.03681983171880872	0.05667615574576525	0.9203416441395901	0.3085816938045678	-0.2956391395292702	-0.3015821304417853	-0.3879492264334186	0.2499269421184765	0.2499269421184919	-0.1745327596056652	-0.1745079900925379	-0.0008036623358878681	0.0004386634095663993	0	0	0	0	0	0	0	0	0	0	0	0	0	0.08672504863238306	-0.03124315729799008	-0.02106377094652414	-0.2489187562896932	0.1851000558261692	-0.03321487753526351	-0.01265931164019068	14.94261458910233	9.003406833569334	1.314825845130903	22.17788175279201	-620.6721889158506	-58.70039869544171	-23.19605183069949	-1.489837161001517	-2.455317309073033	-0.9163393490452292	9.364105774984933	-0.7363419666734558	2.681753422914677	-8.082759871147477	7.691769726807426	7.691769726807403	0.9388809575852864	-0.1657319301679985	0.1584854398955704	-0.7411258596702011	4.087724842898599e-08	7.311670496790081e-08	1.096787344737387e-07	-9.101340973637783e-08	3.906938773620636e-07	4.973583029731475e-08	-2.064262463023415e-08
0.01	-0.03688864963613794	0.05655827606470526	0.9202976685535854	0.3090310558501094	-0.2956742423725621	-0.3014482454161056	-0.3883373239517633	0.2503002725109306	0.2503002725109411	-0.1744862094749523	-0.174512083244835	-0.0007933271845262453	0.0004042173782752774	-0.01350840439461866	-0.02310754949357303	-0.00867070852861531	0.08863575347319125	-0.006793687936669076	0.02662689477654853	-0.07568921119916218	0.07397978093443625	0.07397978093443403	0.00954016235876739	-0.0006298821306434574	0.002457849869427188	-0.006517480643091149	0.06261578085464399	-0.02991653561334701	-0.01796187918010592	-0.2260882810810397	0.1602208256758883	-0.01860239382964024	0.009462011936476991	7.170402436964071	3.915375231951862	2.243291536850786	21.50992503786963	-629.6472324538199	-66.82562884017661	-23.20055138387993	-1.24308087875223	-2.168233963190512	-0.8236971651171076	8.427804544329263	-0.6168715638000769	2.630625417723798	-7.022457874451919	7.148141771849388	7.148141771849293	0.9961220018189918	0.01671464458959762	0.3480655760546746	-0.5513260896263787	3.256849960219917e-09	1.377282980340216e-07	9.03702738514535e-08	-1.540971591659115e-08	1.238890174671749e-07	2.615048921062635e-08	-3.091013417632968e-09
0.02	-0.03708489935741433	0.05622336884997309	0.9201707337702247	0.3103296743125593	-0.2957704799665452	-0.3010525978601208	-0.3894244048081292	0.2513928126117316	0.2513928126117277	-0.1743373500952734	-0.1745168090186428	-0.0007466873713518383	0.0003157431559536571	-0.02548636079167338	-0.0434055067344384	-0.01659183947117396	0.1698512833801352	-0.01222695013879061	0.05235250606104414	-0.139796667604441	0.1438419416723767	0.1438419416723744	0.02046184978938771	-0.0001265242972020167	0.007260932362394665	-0.01080563820609514	0.03850651307684336	-0.02858991392872168	-0.01485998741357552	-0.2032578058724835	0.1353415955255584	-0.003989910124053512	0.03158333551313675	-0.5437819586756237	-1.180201606914173	3.169973320078333	20.80279222887928	-637.7198394121913	-74.87777319414829	-23.21324761567914	-1.183747561489164	-1.893398858531062	-0.7664238318338878	7.880061061735346	-0.4642568197640015	2.501496724504134	-5.766408912371031	6.868245687508201	6.868245687508607	1.215185971955742	0.06091606264903565	0.6275319646041152	-0.2952612436526559	-3.436354850854616e-08	2.023398911001423e-07	7.10618132291683e-08	6.019397790319553e-08	-1.429158424277138e-07	2.565148123937958e-09	1.446059779496821e-08
0.03	-0.03739637475662469	0.05569510404428554	0.9199668602378912	0.3124149340374653	-0.2959170420160734	-0.3004040038451971	-0.3911143535762226	0.2531687457290214	0.2531687457290062	-0.1740764675268686	-0.1745136900415154	-0.0006450200826405952	0.0001910020237206672	-0.03682321525668734	-0.06221793311099742	-0.02419766737653718	0.2470337472030454	-0.01715205267661661	0.07719766361774748	-0.198271513657577	0.2111416090917863	0.2111416090917982	0.0314932829309484	0.000625619667688227	0.01296944594830938	-0.01424538435803847	0.04054143985493984	-0.02568286136344499	-0.01542308394205322	-0.2080229350878264	0.143375862571328	-0.009434259013791593	0.03016835366774665	1.88769657948171	0.7747943641961926	2.839732936423004	19.46134070324399	-636.8042127509065	-70.82553730126079	-23.23305860230205	-1.110829803513514	-1.870723987932253	-0.7599119881859764	7.612297155318841	-0.5166635580841707	2.450729042664522	-5.899786598895445	6.630363402447328	6.630363402449366	1.013955624683188	0.06366416160912164	0.5270513109594334	-0.3837904774676465	-5.065777644131349e-08	1.056716264561592e-07	1.550537978026826e-07	5.462498077037907e-08	-1.792086817925077e-07	-5.108928257318258e-08	-8.178334915698963e-09
0.04	-0.03782165378337666	0.05497960308269127	0.919686478482845	0.3152670100231514	-0.2961148604084347	-0.2995120175004228	-0.3933914036342672	0.2556115827471295	0.2556115827471319	-0.1737119038991503	-0.1745067895051515	-0.0004893596069944755	2.877159466772286e-05	-0.0482470863019721	-0.08085273791578106	-0.03189348401373329	0.3232145355359942	-0.02247821870612324	0.1010309720308839	-0.2572169255951967	0.2772227218427972	0.2772227218428205	0.04119806164957227	0.0006297875605831308	0.01805956974919896	-0.01830349757008524	0.04257636663295169	-0.02277580879821466	-0.01598618047023141	-0.2127880643032793	0.1514101296170506	-0.01487860790359755	0.0287533718223298	4.372142113579625	2.723178597616287	2.507504919735651	18.07395360884064	-635.0829226932905	-66.70321976846007	-23.25968816736255	-1.201150877543774	-1.857874544175555	-0.7844215782004565	7.679725963742929	-0.5444695181001954	2.299126895790628	-5.860522089268011	6.624534753828404	6.624534753828262	0.9498550873682513	-0.0886791517501521	0.5038540075995704	-0.4189346556732411	-6.651228951766848e-08	5.678003921246021e-09	2.411756884627083e-07	4.738231990658108e-08	-2.107486959917327e-07	-1.053636944993842e-07	-3.164593863509334e-08
0.05	-0.03836033357571471	0.05407980925069598	0.9193289966982724	0.3188729020347554	-0.296366238172365	-0.2983863152962696	-0.3962552212246261	0.2587080505006898	0.258708050500693	-0.1732539991823165	-0.1745019704659918	-0.0002841811514676482	-0.0001747822240607458	-0.05935985625098664	-0.09896076193596563	-0.03958468625035613	0.3974883607669235	-0.0276932229735739	0.1240619756284067	-0.3151416940915107	0.3417618264147383	0.3417618264147432	0.05044875330851467	0.0004451680707229629	0.02305120768545188	-0.02227366713829302	0.0360400155712167	-0.02144310631630129	-0.0152639637887675	-0.2086992109515462	0.1479338724575875	-0.01268847624094739	0.03464246576214148	3.347787970622878	1.942751339068609	2.641761128781289	17.28645089632552	-635.9563959837891	-67.42828170256827	-23.2927607242105	-1.046989999715223	-1.765466929675782	-0.7587839534060549	7.229878041958309	-0.4944234633763043	2.297923416487884	-5.697719472576821	6.322254459627713	6.322254459625204	0.92257731698206	0.03336272241561417	0.508080019422786	-0.3660464758735298	-7.146755567753507e-08	4.855209360274744e-08	2.385387344974205e-07	6.406804725860178e-08	-2.561092807986728e-07	-9.845155404540443e-08	-2.47526473777271e-08
0.06	-0.0390062710567612	0.05300329505875319	0.9188951400099309	0.3232072657465019	-0.2966666474954299	-0.2970317357911897	-0.3996861395485031	0.2624406405301036	0.2624406405301107	-0.172701607326526	-0.1744956544077395	-2.683405002107505e-05	-0.0004140354121670955	-0.06969862404543568	-0.1161968099052819	-0.04716846476755873	0.4689088755654852	-0.03228453053337823	0.1468064322161143	-0.370637072298432	0.4044471770167083	0.4044471770166962	0.06009548944044753	0.0009291913816454236	0.02849329893309642	-0.02544337144565852	0.02950366450937731	-0.02011040383438111	-0.01454174710719386	-0.2046103575998963	0.1444576152980992	-0.01049834457830032	0.04053155970188516	2.371292064704835	1.156404039668627	2.774151729093275	16.45235455222545	-636.0965278878056	-68.08981442259487	-23.33132232477074	-1.046350446631108	-1.683479334001447	-0.762936834316394	7.109063877269287	-0.4197301765709971	2.24181749382745	-5.374644031389706	6.253783959834133	6.253783959834297	1.02906398196622	0.0450494084062665	0.593944669878384	-0.2588416035046785	-7.596390617776002e-08	9.74416659038874e-08	2.321645660215931e-07	8.17612856933938e-08	-3.020517843680431e-07	-8.896313770173279e-08	-1.658100264765516e-08
0.07000000000000001	-0.03975309398632036	0.05175883507184822	0.9183857003656621	0.3282426420290402	-0.2970108596300057	-0.2954530669917627	-0.4036584689313253	0.2667908506780799	0.2667908506780807	-0.1720527731988033	-0.1744834580973705	0.0002866144663211816	-0.0006822020601484853	-0.07964425734943531	-0.1325432165539338	-0.05472453004438178	0.5377480977403665	-0.0365606383633363	0.1687108565766346	-0.4233158941875216	0.4652629023381347	0.4652629023381162	0.06951761830133216	0.001417193955127306	0.03420719101549793	-0.02818724365772922	0.02320039041804669	-0.01871278248741027	-0.01395020651865714	-0.2017253056741136	0.1426243278445336	-0.009043951949948646	0.04635573530278377	1.880375182905145	0.6146488301993112	2.856031555238711	15.41573468461687	-636.4030678939208	-68.25387959100772	-23.37427433385201	-0.9654142284903114	-1.587409124102252	-0.7527622352951456	6.708601955418747	-0.4319995089554694	2.132251700882358	-5.137564756421021	5.945677499328566	5.945677499327603	0.8757656309640024	0.03678246549745325	0.5617291344355301	-0.2817948524422217	-8.687182792408104e-08	3.829418788949314e-08	2.655091825217135e-07	8.496953142833227e-08	-3.4208910999758e-07	-1.188020582841835e-07	-2.699840544328806e-08
